# xmcd
#
# Track frame offsets:
#	150
#	26395
#	51125
#	66497
#	82205
#	108170
#	132737
#	153187
#	175097
#	199780
#	229692
#
# Disc length: 3300 seconds
#
# Revision: 0
# Processed by: cddbd v1.4PL0 Copyright (c) Steve Scherf et al.
# Submitted via: audiograbber 1.80
#
DISCID=920ce20b
DTITLE=Chet Baker, Art Pepper, Paul Desmond, Al Cohn, Bud Shank - My Funny Vale
DTITLE=ntine
DYEAR=1900
DGENRE=
TTITLE0=When the blues leave
TTITLE1=My funny Valentine
TTITLE2=What's new
TTITLE3=Thyme time
TTITLE4=You go to my head
TTITLE5=Line for lyons
TTITLE6=Jane Street
TTITLE7=Ah moore
TTITLE8=I'll remember april
TTITLE9=Squeeze me
TTITLE10=and one's more: my funny Valentine
EXTD=
EXTT0=
EXTT1=
EXTT2=
EXTT3=
EXTT4=
EXTT5=
EXTT6=
EXTT7=
EXTT8=
EXTT9=
EXTT10=
PLAYORDER=
